<svg width="116" height="100" viewBox="0 0 116 100" fill="none" xmlns="http://www.w3.org/2000/svg">
<path d="M112.358 50C112.358 75.2154 88.4903 96.5 57.9288 96.5C27.3673 96.5 3.5 75.2154 3.5 50C3.5 24.7846 27.3673 3.5 57.9288 3.5C88.4903 3.5 112.358 24.7846 112.358 50Z" stroke="black" stroke-width="7"/>
<g filter="url(#filter0_bf_1570_922)">
<path d="M93.4624 66.8034C99.7786 71.4794 83.2721 91.5862 61.1293 91.5862C40.2134 91.5862 22.7498 84.2975 20.8787 69.4873C20.6581 67.7411 21.0893 65.9078 22.2969 64.6273C29.3638 57.1331 40.5925 71.4794 61.1293 71.4794C83.2721 71.4794 84.4091 60.101 93.4624 66.8034Z" fill="white" fill-opacity="0.76"/>
<path d="M93.1649 67.2052C94.4609 68.1647 94.7035 69.9868 93.7238 72.4645C92.7552 74.9146 90.6474 77.8064 87.6296 80.5802C81.5984 86.1236 72.0522 91.0862 61.1293 91.0862C50.7209 91.0862 41.2109 89.2714 34.0891 85.645C26.976 82.0231 22.2838 76.6197 21.3748 69.4246C21.1685 67.7916 21.5775 66.1189 22.6607 64.9703C24.2991 63.2328 26.1575 62.7572 28.3968 63.0326C30.6819 63.3136 33.3234 64.3724 36.4669 65.7035C36.7587 65.827 37.0543 65.9527 37.354 66.0801C43.4691 68.68 51.2299 71.9794 61.1293 71.9794C72.2063 71.9794 78.099 69.1522 82.3045 67.1345L82.4206 67.0788C84.5349 66.0647 86.128 65.3212 87.7407 65.2052C89.3112 65.0921 90.9639 65.5757 93.1649 67.2052Z" stroke="black" stroke-opacity="0.45"/>
</g>
<path d="M87.409 27.3049C89.2024 29.3955 90.2322 31.4461 90.5591 33.4147C89.3311 34.4048 88.1468 34.7016 86.8737 34.6875C84.9686 34.6663 82.6643 33.9405 79.5577 32.6521C78.6952 32.2944 77.7831 31.8965 76.8239 31.4781C71.2826 29.061 64.1705 25.9586 55.9862 25.9586C47.6132 25.9586 40.902 28.9504 35.7594 31.2428C35.0026 31.5802 34.2797 31.9025 33.5905 32.1978C30.7669 33.4078 28.7038 34.0975 26.9252 34.1604C25.7547 34.2019 24.5987 33.9749 23.3269 33.1537C23.8556 28.1753 26.784 23.4859 31.5592 19.8348C36.8508 15.7889 44.2079 13.209 52.1962 13.209C60.2709 13.209 70.1932 15.8426 78.0433 20.1267C81.9542 22.261 85.1904 24.7188 87.409 27.3049Z" fill="#F3F0F0" stroke="black" stroke-width="7"/>
<defs>
<filter id="filter0_bf_1570_922" x="16.8242" y="58.46" width="81.998" height="37.126" filterUnits="userSpaceOnUse" color-interpolation-filters="sRGB">
<feFlood flood-opacity="0" result="BackgroundImageFix"/>
<feGaussianBlur in="BackgroundImageFix" stdDeviation="2"/>
<feComposite in2="SourceAlpha" operator="in" result="effect1_backgroundBlur_1570_922"/>
<feBlend mode="normal" in="SourceGraphic" in2="effect1_backgroundBlur_1570_922" result="shape"/>
<feGaussianBlur stdDeviation="2" result="effect2_foregroundBlur_1570_922"/>
</filter>
</defs>
</svg>
