<svg id="Layer_1" data-name="Layer 1" xmlns="http://www.w3.org/2000/svg" width="217.6631" height="277.7781" viewBox="0 0 217.6631 277.7781"><defs><style>.cls-1,.cls-9{fill:#010101;}.cls-2{fill:#b1734f;}.cls-3{fill:#96684b;}.cls-4{fill:#2a2321;}.cls-5{fill:#fff;}.cls-6{fill:#b97e59;}.cls-7{fill:#855c41;}.cls-8{fill:#cd8e67;}.cls-9{opacity:0.96;isolation:isolate;}.cls-10{fill:#b66f5f;}.cls-11{fill:#9f6253;}.cls-12{fill:#ba6b5a;}.cls-13{fill:#ca7362;}.cls-14{fill:#221f1f;}.cls-15{fill:#403c3c;}.cls-16{fill:#231f20;}.cls-17{fill:#231f1f;}.cls-18{fill:#9f6748;}.cls-19{fill:#6b442b;}.cls-20{fill:#dba082;}.cls-21{fill:#22c4f4;}</style></defs><g id="head"><g id="Head-2" data-name="Head"><g id="Face"><path class="cls-1" d="M295.7686,844.82s19.9-11,16.5-14.9-8.9-14.7-18.3-20.2-72.8-10.4-126.1,46.9c0,0-35.3,28.7-7.9,63.3,0,0,7,39.1,23.8,56.7,7.1,7.4,27.9,39.5,27.4,45.9h0c-.3,6.9-.8,6.8-.8,6.8.4.2,2.3-3.9,2.3-3.9s-1.5,2.6-1.4,2.4c4.1-6.9,10.6-20.9,5.8-34-3.7-10.3-13.9-18.3-15.7-20-5-5.1-11.7-7.9-18-16.5-3.1-4.3-3.4-6-3.4-7.3.4-7.7,14.1-16.6,24.2-14,13.2,3.4,15.9,25.3,24.4,24.4,2.7-.3,4.5-2.8,5.1-3.7,2.7-3.8.2-8.7-5-21.8-6.1-15.3-7.2-19.2-5.9-23.9a32.4013,32.4013,0,0,1,4.2-8.5c1.9-2.9,3.9-4.8,7.8-8.4,5-4.8,6.6-5.6,11.1-10,3.3-3.3,5.6-5.8,6.8-7.1,6.5-6.7,18.4-17,43.1-32.2,1.8-1.1,4.6-2.8,7.9-4.9,4.3-2.7,4.7-3,5.5-3,2,0,6.1,2.7,11.2,26.8" transform="translate(-144.1055 -804.3543)"/><path class="cls-2" d="M331.4686,882.52c-3.2-5.8-6-10-6.7-11.2-3.4-6.2-7.8-13.3-12-16.6,0,0-7.4-9.6-17-9.9s-63.5,40.8-74,67.8a159.3432,159.3432,0,0,1,5.2,17.5,171.1805,171.1805,0,0,1,4.3,28c-1.4,0-2.8.1-4.2.1a28.9518,28.9518,0,0,0-4.5-11.4c-7.1-10.4-19.1-12.1-21.5-12.4,0,0-23.8-1.4-21.8,11.9,0,0-.8,9.1,2.5,13.6,0,0,11.9,12.5,15,12.8a48.3461,48.3461,0,0,1,13.6,17.3c6.2,13.4,4.3,25.7,3.7,29.7a47.17,47.17,0,0,1-1.8,7.4c59.3,27.3,88.4,42.4,87.3,45-.1.2-.4.4-1,.4-4.5,1.8-6.3,5.8-5.4,7.6s4.9,3,9.1.9a174.8055,174.8055,0,0,1,6.5-16.3,28.5816,28.5816,0,0,0,2.8-16.2,35.5613,35.5613,0,0,1-1.5-5.9,29.7736,29.7736,0,0,1,.1-9.1c.4-2.2.8-9.5,5.2-12.9,2.7-2,20.5,1.6,24.8-6.8s-.4-18.1,1.4-21.5,4.9-28.2,5.8-28.3c.4,0,.6-1.5.5-5.4,2.1-14.9,2.2-22.6.3-23.2q-.75-.15-1.8.9a19.1965,19.1965,0,0,0-1.7-8.8,46.743,46.743,0,0,0-4.8-6.9,10.4126,10.4126,0,0,0-.5-1.2,47.4337,47.4337,0,0,1-2.7-16.1c-.3-6.9.8-7.6-.3-11.6C335.7686,889.72,334.7686,888.52,331.4686,882.52Z" transform="translate(-144.1055 -804.3543)"/><path class="cls-3" d="M326.6686,949.72s-.5,5.7,0,6.4a13.8034,13.8034,0,0,0,1.8,2s2.9-.9,2.2-2c-.8-1.1-3.2-4-2.2-6.4C328.4686,949.72,326.7686,948.42,326.6686,949.72Z" transform="translate(-144.1055 -804.3543)"/><path class="cls-4" d="M330.0686,977.72c5.4-.6,9.6,1.7,10.1,4.2.6,2.7-3,7.2-9.6,8.1-8.2-.4-13.9-3.4-13.9-5.9C316.6686,981.72,322.0686,978.52,330.0686,977.72Z" transform="translate(-144.1055 -804.3543)"/><path class="cls-1" d="M312.4686,909.52s.6,20-9.6,31.8c0,0-5.3-7.8-8.5-6.8C291.0686,935.42,308.2686,933.32,312.4686,909.52Z" transform="translate(-144.1055 -804.3543)"/><g id="Face_Parts" data-name="Face Parts"><g id="Eyes"><g id="Left_Eye" data-name="Left Eye"><ellipse class="cls-5" cx="136.3631" cy="104.4654" rx="9.2" ry="5.4"/><path class="cls-1" d="M254.9686,915.52l2.8-1.9c12-8,22.6-12.2,27-10.8a11.4,11.4,0,0,1,4.2,2.6,8.3165,8.3165,0,0,1,2.3,5.5c0,2-.5,3.2-1.4,3.5a2.845,2.845,0,0,1-1.3,0,54.5625,54.5625,0,0,1-9.9,0,40.4587,40.4587,0,0,1-5-.8,33.4612,33.4612,0,0,0-5-.7,29.8509,29.8509,0,0,0-10.5,1.4Zm12.4-3.4h1.4a34.5342,34.5342,0,0,1,5.2.7,44.1129,44.1129,0,0,0,4.9.7,53.4649,53.4649,0,0,0,9.8,0h.2a1.9523,1.9523,0,0,0,.7.1c.5-.2.8-1.2.8-2.6a8.0459,8.0459,0,0,0-2-4.9,10.4325,10.4325,0,0,0-3.8-2.4c-3.2-1-11.6,1.4-23.6,9A34.6583,34.6583,0,0,1,267.3686,912.12Z" transform="translate(-144.1055 -804.3543)"/><ellipse cx="137.9631" cy="103.8654" rx="4.6" ry="4.4"/><path class="cls-1" d="M282.0686,913.22a4.9039,4.9039,0,1,1,5.1-4.9A5.0177,5.0177,0,0,1,282.0686,913.22Zm0-8.9a4.016,4.016,0,0,0-4.1,3.9,4.1051,4.1051,0,1,0,4.1-3.9Z" transform="translate(-144.1055 -804.3543)"/><circle class="cls-5" cx="139.8631" cy="102.5654" r="1.3"/><path class="cls-1" d="M283.9686,908.72a1.8,1.8,0,1,1,1.8-1.8A1.7925,1.7925,0,0,1,283.9686,908.72Zm0-2.6a.7887.7887,0,0,0-.8.8.8.8,0,1,0,.8-.8Z" transform="translate(-144.1055 -804.3543)"/><path class="cls-1" d="M269.5686,905.52a30.7062,30.7062,0,0,1,6.3-3.1,20.2971,20.2971,0,0,1,7-1.4,15.5338,15.5338,0,0,1,3.7.4,7.5479,7.5479,0,0,1,3.3,2,9.0522,9.0522,0,0,1,2,3.2,11.3251,11.3251,0,0,1,.6,3.6h-.2a15.2381,15.2381,0,0,0-3.7-5.4,10.3487,10.3487,0,0,0-5.7-2.3,21.9634,21.9634,0,0,0-6.7.8,50.1793,50.1793,0,0,0-6.5,2.3Z" transform="translate(-144.1055 -804.3543)"/></g><g id="Right_Eye" data-name="Right Eye"><path class="cls-5" d="M319.6686,912.82c1.4-6.1,7-8.8,10.3-7.4,2.5,1,4.1,4.5,3.7,8.4a14.9088,14.9088,0,0,1-14-1Z" transform="translate(-144.1055 -804.3543)"/><path d="M327.7686,915.62a17.63,17.63,0,0,1-8.4-2.3l-.3-.2.1-.4a10.8662,10.8662,0,0,1,5.4-7.2,6.3945,6.3945,0,0,1,5.5-.5c2.8,1.1,4.5,4.9,4,9v.3l-.3.1a16.5689,16.5689,0,0,1-3.8,1.1C329.2686,915.52,328.4686,915.62,327.7686,915.62Zm-7.5-3.1a14.5242,14.5242,0,0,0,12.9,1c.3-3.5-1.2-6.7-3.4-7.6a5.7039,5.7039,0,0,0-4.7.5A9.0694,9.0694,0,0,0,320.2686,912.52Z" transform="translate(-144.1055 -804.3543)"/><ellipse class="cls-1" cx="184.3631" cy="105.8654" rx="3.4" ry="4.1"/><path d="M328.4686,914.82c-2.1,0-3.9-2.1-3.9-4.6s1.7-4.6,3.9-4.6c2.1,0,3.9,2.1,3.9,4.6C332.2686,912.72,330.5686,914.82,328.4686,914.82Zm0-8.2c-1.6,0-2.9,1.6-2.9,3.6s1.3,3.6,2.9,3.6,2.9-1.6,2.9-3.6S330.0686,906.62,328.4686,906.62Z" transform="translate(-144.1055 -804.3543)"/><circle class="cls-5" cx="185.0631" cy="104.2654" r="1.3"/><path class="cls-1" d="M329.1686,910.52a1.8,1.8,0,1,1,1.8-1.8A1.7925,1.7925,0,0,1,329.1686,910.52Zm0-2.7a.7887.7887,0,0,0-.8.8.8.8,0,0,0,1.6,0A.7887.7887,0,0,0,329.1686,907.82Z" transform="translate(-144.1055 -804.3543)"/><path class="cls-1" d="M324.9686,903.92a6.6015,6.6015,0,0,1,4.8-.7,8.5178,8.5178,0,0,1,4.2,2.7,8.7444,8.7444,0,0,1,.8,1c.2.3.5.7.7,1a9.4318,9.4318,0,0,1,1,2.3,13.0449,13.0449,0,0,1,.4,4.8h-.2a10.598,10.598,0,0,1-1.1-2.1,3.1281,3.1281,0,0,0-.5-1l-.5-1c-.3-.7-.6-1.3-.9-2.1a3.1291,3.1291,0,0,0-.5-1,7.2626,7.2626,0,0,0-.5-.9,6.71,6.71,0,0,0-3.2-2.8,7.3031,7.3031,0,0,0-4.4-.1Z" transform="translate(-144.1055 -804.3543)"/></g></g><g id="Eyebrows"><path class="cls-1" d="M314.9686,895.92s-1.1-11.3,18.7-13.9c0,0,6,10.5,5.6,12.5-.5,2-11.3-2.3-12.1-2.3S321.7686,892.02,314.9686,895.92Z" transform="translate(-144.1055 -804.3543)"/><path class="cls-1" d="M304.2686,894.92s-4.3-10.9-10.5-11.5-21.1-5.1-29.5-4.8c0,0-10.2,3.8-9,17.4a71.0479,71.0479,0,0,1,13-4.2,67.2243,67.2243,0,0,1,14.9-1.7,75.809,75.809,0,0,1,10.3,1.4A65.9,65.9,0,0,1,304.2686,894.92Z" transform="translate(-144.1055 -804.3543)"/></g><g id="Lips"><path class="cls-6" d="M313.6686,933.62s-11.9,5.9-8.5,9.6c3.3,3.6,5.7-2.5,5.7-2.5l8.9-4.7c.6-.1.7-.2.8-.4.2-.6-1.8-2.3-4-2.5A5.81,5.81,0,0,0,313.6686,933.62Z" transform="translate(-144.1055 -804.3543)"/><g id="Nose"><path class="cls-7" d="M308.4686,946.82s4.6-16.4,11.4-10.9c0,0,6.5-8.8,9.3,1.3,0,0,12.2-3.8-2.1,5.7,0,0-11.1,8.5-4.3-.8a12.6822,12.6822,0,0,0-5.8.3c-.7.2-1.3.5-5.1,2.5C310.4686,945.72,309.3686,946.42,308.4686,946.82Z" transform="translate(-144.1055 -804.3543)"/><path class="cls-8" d="M331.8686,933.62s6.3,2.1-6.6,10.3c0,0,1.2,3.4,8.5-4.9,0,0,1.8.9,0,6.6,0,0,2.8,3.6.8-12C334.4686,933.62,330.7686,930.02,331.8686,933.62Z" transform="translate(-144.1055 -804.3543)"/><path class="cls-9" d="M328.4686,944.72s9-11.9,3.5,1.7A4.4854,4.4854,0,0,1,328.4686,944.72Z" transform="translate(-144.1055 -804.3543)"/><path class="cls-1" d="M310.8686,946.02s0-5.1,4.5-7.4,7.4,3.7,7.4,3.7-1.2-.6-4.2-.3C315.5686,942.52,310.8686,946.02,310.8686,946.02Z" transform="translate(-144.1055 -804.3543)"/><path class="cls-5" d="M317.7686,914.32l16,16.9s1.6,2.2-1.1,3.7c0,0-4.7-2.5-4-3.7C328.5686,931.12,314.6686,913.62,317.7686,914.32Z" transform="translate(-144.1055 -804.3543)"/><path class="cls-1" d="M303.2686,943.12a5.775,5.775,0,0,0,2,2.1,6.3963,6.3963,0,0,0,2.6,1h.7c.2,0,.5-.1.7-.1.4,0,.9-.1,1.4-.1h1.5a9.1507,9.1507,0,0,1,1.6.1l.1.2a12.667,12.667,0,0,1-1.3,1.1,4.42,4.42,0,0,1-1.6.6,5.6982,5.6982,0,0,1-3.4-.3,7.8882,7.8882,0,0,1-2.9-1.8,4.695,4.695,0,0,1-1.4-2.8Z" transform="translate(-144.1055 -804.3543)"/></g><path class="cls-10" d="M317.7686,961.52s9.1-5.6,8.9-.9c0,0,7.1-.1,7.7-1.2s5.4,6.7,5.4,6.7l-16.3-1.9-3.2-1.8-2.5-.9" transform="translate(-144.1055 -804.3543)"/><path class="cls-11" d="M301.4686,972.02c-.2-.5,1.4-1.3,12.6-8.3,3.7-2.3,5.3-3.3,7.4-3.1,3.4.4,4,3.2,7.5,3.3,3,.1,4.2-1.9,6.5-1.1a5.5374,5.5374,0,0,1,3.1,3.3c1.1,1.8,1.2,3.5.5,4.2a1.2069,1.2069,0,0,1-.8.3,5.1214,5.1214,0,0,0-1.2-1.3c-3.2-2.4-8.2,0-8.6.2a49.9229,49.9229,0,0,0-11.4-.3C307.7686,969.92,301.8686,972.92,301.4686,972.02Z" transform="translate(-144.1055 -804.3543)"/><path class="cls-12" d="M303.1686,971.92a104.2954,104.2954,0,0,0,12.9,4.4c8.6,2.3,15.1,3.9,20.4.5a11.7075,11.7075,0,0,0,3.2-2.9,17.2074,17.2074,0,0,0-2-2.2c-2.6-2.1-6.9-4-24.5-1.5-2.6.4-6,.9-10,1.7" transform="translate(-144.1055 -804.3543)"/><path class="cls-13" d="M309.9686,970.02s14.2-.2,14.5,0a46.0789,46.0789,0,0,0,9.2.8,5.3137,5.3137,0,0,1,3.9,1s-10.6,6.9-27.6-1.8" transform="translate(-144.1055 -804.3543)"/><path class="cls-5" d="M336.6686,970.12h0c-1.1-.1-3.4-.2-3.9.7-.5.8.4,2.2,1,3.1s1.1,1.7,1.9,1.8c1.5.1,2.6-2.4,2.7-2.9C338.3686,972.12,337.5686,970.12,336.6686,970.12Z" transform="translate(-144.1055 -804.3543)"/><path class="cls-1" d="M300.3686,972.12c3.5.8,6.9,1.7,10.4,2.4s7,1.4,10.5,1.8a47.2544,47.2544,0,0,0,5.3.4c1.7.1,3.5.2,5.1.2a14.77,14.77,0,0,0,4.8-.5,5.4436,5.4436,0,0,0,1.8-1.1,4.23,4.23,0,0,0,.8-2.3h.3a4.1226,4.1226,0,0,1,.1,2.9,4.9366,4.9366,0,0,1-2.1,2.4,13.215,13.215,0,0,1-5.6,1.6,35.8223,35.8223,0,0,1-10.9-1.3c-3.5-.8-7-1.7-10.4-2.8s-6.8-2.2-10.2-3.5Z" transform="translate(-144.1055 -804.3543)"/><path class="cls-1" d="M300.4686,972.22c0-.1-.2,0-.1,0h.1l.1-.1.2-.1.4-.2.7-.5,1.4-1,2.9-1.9c1.9-1.3,3.9-2.5,5.9-3.7s3.9-2.4,5.9-3.6c1-.6,2-1.2,3-1.7a31.3275,31.3275,0,0,1,3.2-1.5.7494.7494,0,0,1,.5-.1,1.2294,1.2294,0,0,1,.8.1l.7.5a6.7028,6.7028,0,0,0,1.4.9,4.388,4.388,0,0,0,2.9.6,3.5061,3.5061,0,0,0,1.4-.6l.4-.2c.2-.1.3-.2.5-.3a4.2528,4.2528,0,0,1,1.1-.2,3.5679,3.5679,0,0,1,1.9.6,8.777,8.777,0,0,1,1.5,1.2,15.4394,15.4394,0,0,1,3.5,6.4,17.5044,17.5044,0,0,1,.6,7.2l-.3,2.3-1.3-1.9a17.5537,17.5537,0,0,0-3.2-3.9c-.1-.1-.3-.2-.4-.3-.1,0-.1,0-.1-.1h.1l-1.3.2c-.9.1-1.8.3-2.7.4a17.5909,17.5909,0,0,1-5.6-.1,8.8,8.8,0,0,1-1.5-.5,2.5665,2.5665,0,0,1-.5-.2,4.3311,4.3311,0,0,0-.5-.1,20.9021,20.9021,0,0,0-2.5-.1,96.3158,96.3158,0,0,0-10.6.8c-1.8.2-3.5.4-5.3.7-.9.1-1.8.3-2.6.4-.4.1-.9.2-1.3.3-.2.1-.4.1-.6.2-.1,0-.2.1-.3.1h-.4C300.5686,972.22,300.5686,972.12,300.4686,972.22Zm-.2.1a1.0073,1.0073,0,0,0,.1-.3c.1-.1.1-.1.2-.1a.3674.3674,0,0,1,.3-.1l.6-.3c.4-.1.9-.3,1.3-.4a25.044,25.044,0,0,1,2.6-.7c1.7-.4,3.5-.8,5.3-1.1a76.3934,76.3934,0,0,1,10.7-1.4,26.1334,26.1334,0,0,1,2.8,0c.3,0,.5.1.8.1.3.1.7.3.8.3a3.5447,3.5447,0,0,0,1.1.3,16.7567,16.7567,0,0,0,5,0c.9-.1,1.7-.2,2.6-.3l1.4-.2c.2,0,.6,0,.7.1.2.1.4.1.5.2a4.2335,4.2335,0,0,1,.7.5,13.0344,13.0344,0,0,1,1.9,2.2,15.0211,15.0211,0,0,1,1.5,2.3l-1.6.3a14.3153,14.3153,0,0,0-.3-6.5,14.0047,14.0047,0,0,0-3-5.8,4.153,4.153,0,0,0-2.5-1.5,1.2672,1.2672,0,0,0-.6.1c-.1,0-.2.1-.3.1l-.4.2a6.7,6.7,0,0,1-1.8.7,5.806,5.806,0,0,1-3.7-.8,14.2949,14.2949,0,0,1-1.5-1.1l-.7-.6c.2.1.1,0,0,.1a.7559.7559,0,0,0-.4.1,20.4617,20.4617,0,0,0-3.1,1.3c-1,.5-2.1,1.1-3.1,1.6-2,1.1-4,2.3-6,3.4s-4,2.4-6,3.5l-3,1.8-1.5.9-.7.5-.4.2-.2.1-.1.1h-.1C300.4686,972.32,300.3686,972.42,300.2686,972.32Z" transform="translate(-144.1055 -804.3543)"/></g></g></g><g id="Hair"><path class="cls-1" d="M173.8686,849.52a28.23,28.23,0,0,0-10,18.3.5072.5072,0,0,0,.9.4,225.1244,225.1244,0,0,1,21-23.7l-.8-.8c-6,6.3-12.2,12.3-18.7,18.1a.5061.5061,0,0,0,.6.8,110.338,110.338,0,0,0,20.9-16.4l-1.1-1.1a77.0087,77.0087,0,0,0-5.7,7.1c-.2.3.3.6.5.4,2.2-2,4.2-4.2,6.3-6.4a.7787.7787,0,0,0-1.1-1.1,232.8877,232.8877,0,0,1-20.3,16.6c.2.3.4.5.6.8,6.4-5.8,12.6-11.8,18.6-18.1.5-.5-.3-1.2-.8-.8a206.1963,206.1963,0,0,0-17.2,19c-.1.1-2.8,3.5-2.8,3.6-.5-.5,1.4-4.9,1.6-5.5a33.5208,33.5208,0,0,1,7.5-11.1c.3-.1.1-.2,0-.1Z" transform="translate(-144.1055 -804.3543)"/><path class="cls-1" d="M179.6686,846.02c-4.2,8.2-8.2,16.4-12.2,24.6-.5,1,.9,1.9,1.5.9,7.2-10.9,14.8-21.5,23-31.6.7-.8-.3-1.8-1.2-1.2a86.2673,86.2673,0,0,0-11.6,11,14.3092,14.3092,0,0,0,1.5,1.1,2.4386,2.4386,0,0,0,.6-2.3.6648.6648,0,0,0-1.3-.2,10.93,10.93,0,0,0-.8,1.5c-.6.8.8,1.9,1.5,1.1a67.1283,67.1283,0,0,1,11.4-11.2l-1.2-1.2c-8.3,10.5-16.2,21.1-23.4,32.1l1.5.9c4-8.3,7.9-16.5,11.7-24.9a.5835.5835,0,1,0-1-.6Z" transform="translate(-144.1055 -804.3543)"/><path class="cls-14" d="M297.1686,845.62c3.8-2.8,7.4-5.8,11.1-8.8,1.9-1.5,5.7-3.7,5.8-6.6.2-5.5-11.7-5-15-5-16.9-.1-28.1,11.2-37.1,24.3-.9,1.4,1.4,2.8,2.2,1.3a15.0891,15.0891,0,0,0,1.5-2.8c.2-.5-.3-1.1-.8-.8a14.3711,14.3711,0,0,0-2.5,1.8l1.8,1.8c7.1-9.3,13.9-19.5,26-22.5,4.9-1.2,13.9-2.4,18.7-.1,5.5,2.5-2.1,7.6-4.1,9.3-2.8,2.3-5.6,4.7-8.3,7.2-.6.4.1,1.3.7.9Z" transform="translate(-144.1055 -804.3543)"/><path class="cls-15" d="M300.5686,826.42c-15.3,2.5-27.2,12.4-38.6,22.1-1.4,1.2.5,3.6,1.9,2.5,6.7-4.9,13.4-10,20-15,1.6-1.2.3-3.8-1.6-2.8-4.7,2.5-9.3,5-14,7.5.6.8,1.3,1.6,1.9,2.5a38.7262,38.7262,0,0,1,14.6-9.6c-.5-.9-1.1-1.8-1.6-2.8a30.3,30.3,0,0,1-8.9,5.1c.4,1,.9,2.1,1.3,3.1a46.2375,46.2375,0,0,1,15-7.2c-.5-1.1-1-2.3-1.4-3.4a36.8361,36.8361,0,0,1-8.5,2.8c.5,1.2,1,2.3,1.4,3.4a39.1826,39.1826,0,0,1,26.7-3.1c.2-1.3.4-2.7.6-4a67.02,67.02,0,0,0-40.2,12.5c.9,1.2,1.8,2.4,2.8,3.6a67.9492,67.9492,0,0,1,39-14.3c-.2-1.5-.4-3.1-.6-4.6-17.1,3.3-36.7,10.2-49.1,23,1.2.9,2.5,1.9,3.7,2.9l1.2-1.8c1.1-1.6-1-3.5-2.6-2.6-.6.4-1.3.8-1.9,1.2-2.6,1.6-.1,5.8,2.4,4.1,7.2-4.9,13.8-10.2,21.7-14.1a89.4853,89.4853,0,0,1,25.7-8.1c2.6-.4,2-4.7-.6-4.6a71.3858,71.3858,0,0,0-42.2,15.7c-2,1.6.7,5.1,2.8,3.6a61.0142,61.0142,0,0,1,37.9-12.3c2.3,0,2.8-3.5.6-4a44.3276,44.3276,0,0,0-29.7,3.8c-2,1-.5,3.8,1.4,3.4a40.1479,40.1479,0,0,0,9.4-3.2c1.9-.9.6-4-1.4-3.4a49.384,49.384,0,0,0-15.7,7.9c-1.4,1-.7,3.9,1.3,3.1a38.926,38.926,0,0,0,10.4-6.1c1.2-1-.1-3.3-1.6-2.8a41.9294,41.9294,0,0,0-16,10.6,1.5953,1.5953,0,0,0,1.9,2.5c4.7-2.5,9.4-4.9,14.1-7.4-.5-.9-1.1-1.9-1.6-2.8-6.7,5-13.4,10-20,15,.7.8,1.3,1.7,1.9,2.5,11-9.6,22.4-19.2,36.7-23.1.7-.3.3-1.4-.5-1.3Z" transform="translate(-144.1055 -804.3543)"/><path class="cls-15" d="M148.7686,890.32c-3.2,3.2-.3,11.3,1,15a47.8335,47.8335,0,0,0,9.5,16.3c1.3,1.5,4.3.8,4.6-1.2a24.3967,24.3967,0,0,1,6.7-13.6,23.3011,23.3011,0,0,1,5.9-4.4c2-1.1,3.8-1.4,5.3-3.1a1.6337,1.6337,0,0,0-.7-2.7c-4.8-1.3-10.6,3.7-13.8,6.9a32.3911,32.3911,0,0,0-8.6,15.4c1.5-.4,3.1-.8,4.6-1.2a45.31,45.31,0,0,1-9.8-15,44.8414,44.8414,0,0,1-2-6.9c-.5-2.3-.2-3.9-2-5.4-.3-.2-.5-.3-.7-.1Z" transform="translate(-144.1055 -804.3543)"/><path class="cls-14" d="M168.7686,909.72a12.1988,12.1988,0,0,0-1.7.7c-.4.2-.4,1,.1.9,11.8-1.1,24.2-7.4,34.1-13.6,6.3-3.9,21.2-13,18.4-22.3a.5931.5931,0,0,0-1.1-.1c-1,2-1.3,4.1-2.3,6.1a23.9359,23.9359,0,0,1-5.1,6.3,89.99,89.99,0,0,1-13.9,9.9,127.4977,127.4977,0,0,1-14.3,7.2c-4,1.7-11.4,3-14,5.3.1-.3-.1-.5-.2-.4Z" transform="translate(-144.1055 -804.3543)"/><path class="cls-14" d="M213.5686,890.32c11.7.3,24.1-6.8,32.7-14.1a63.15,63.15,0,0,0,20-31.1,1.2524,1.2524,0,0,0-2.4-.7,61.7684,61.7684,0,0,1-18.8,29.5,66.3605,66.3605,0,0,1-14.5,9.6c-5.6,2.7-11.3,3.9-17.2,5.7-.5.3-.4,1.1.2,1.1Z" transform="translate(-144.1055 -804.3543)"/><path class="cls-16" d="M306.8686,828.42c1.1-.7,2.5-2.2,2.3-3.6a.1916.1916,0,0,0-.3-.1,13.0177,13.0177,0,0,1-.8,1.7,5.7245,5.7245,0,0,1-1.5,1.6c-.1.2.1.5.3.4Z" transform="translate(-144.1055 -804.3543)"/><path class="cls-15" d="M311.3686,829.12c-5.9-32.7-51.9-26-74.5-19-28.7,8.9-54.4,26.6-74.6,48.8-10.2,11.2-24.5,27.3-15.1,43.2,2,3.3,7.2.3,5.1-3-6-9.8.7-20.1,6.9-27.8a187.3733,187.3733,0,0,1,16-17.4,169.0554,169.0554,0,0,1,40.2-28.9,136.682,136.682,0,0,1,47.5-14.6c8.7-1,18.4-2,26.9.6,8.8,2.8,16.9,9.6,18.9,18.9.3,1.9,3.1,1.1,2.7-.8Z" transform="translate(-144.1055 -804.3543)"/><path class="cls-16" d="M149.9686,894.12a17.7188,17.7188,0,0,1,1.9-13.7c-.4-.1-.9-.2-1.3-.3-.2,2.4-.4,4.8-.7,7.1-.2,2-.7,4.2-.2,6.1.1.4.6.3.8,0,.8-1.9.7-4.1.9-6.1.2-2.4.4-4.8.6-7.1.1-.7-1-.9-1.3-.3a18.8848,18.8848,0,0,0-1.6,14.7c.1.5,1,.2.9-.4Z" transform="translate(-144.1055 -804.3543)"/><path class="cls-15" d="M307.8686,838.32c2.6-2.5,4.8,7.2,5,8,.6,1.9,1.1,3.8,1.7,5.7,1.1,3.9,1.9,8.2,3.9,11.7.7,1.2,3,.8,2.8-.8-.5-4.7-2.7-9.2-4.3-13.7-1.3-3.5-2.1-7.7-4-10.9-1.4-2.4-5.2-4.7-6.5-.9a.884.884,0,0,0,1.4.9Z" transform="translate(-144.1055 -804.3543)"/><path class="cls-15" d="M159.8686,916.92c2.3,19.6,6.9,40.4,19,56.4,6.3,8.3,13.8,15.8,19.1,24.8a80.878,80.878,0,0,1,10.3,30.2c.4,3.1,4.6,2.3,5.4,0,4.3-11.6,4.8-25,.4-36.7-2.1-5.6-6.3-11.1-10.2-15.6-2.7-3.1-7.1,1.4-4.5,4.5a60.6928,60.6928,0,0,1,8.7,12.9c4.8,10.5,4.1,22.8.2,33.4h5.4a87.6248,87.6248,0,0,0-8.8-27.8c-4.7-9-11.2-16.6-17.7-24.2-7-8.2-13.1-17.3-16.8-27.4-3.7-9.9-5.9-20.4-8.8-30.6-.4-.9-1.8-.8-1.7.1Z" transform="translate(-144.1055 -804.3543)"/><path class="cls-15" d="M242.7686,817.82c-17.9,3.6-34.9,15.2-47.5,28a109.0635,109.0635,0,0,0-16.5,21.7,91.39,91.39,0,0,0-5.9,12.2c-1.3,3.3-4.1,7.9-2.5,11.3a.9647.9647,0,0,0,1.4.3c2.8-1.8,3-5.7,4.1-8.6a112.8374,112.8374,0,0,1,5.9-12.7,104.0679,104.0679,0,0,1,15.8-22c12.9-13.8,28.2-22,45.6-28.8a.7321.7321,0,0,0-.4-1.4Z" transform="translate(-144.1055 -804.3543)"/><path class="cls-15" d="M172.8686,881.42a29.3193,29.3193,0,0,1-1.1,6.7c-.9,2.5-4.6,8.4-6.5,3.4-.8-2.1.6-5.9,1.1-7.9a42.06,42.06,0,0,1,3-8.4c4.3-9.2,11.4-16.7,19.1-23.2a194.5292,194.5292,0,0,1,24.8-17.5c8.9-5.4,18.6-9.5,27.4-15a1.272,1.272,0,0,0-1-2.3c-13.8,3.1-27.3,11.2-38.9,19.1-11.1,7.7-22.5,16.4-30.2,27.7a50.62,50.62,0,0,0-8,17.7c-.8,3.9-2.8,13,.6,16.1,3,2.6,6.7-.7,8.5-3a15.3358,15.3358,0,0,0,3-13.5.9091.9091,0,0,0-1.8.1Z" transform="translate(-144.1055 -804.3543)"/><path class="cls-15" d="M173.6686,869.62c-6.3,5.9-8.6,14-7.4,22.5a1.5014,1.5014,0,0,0,2.5.7,17.74,17.74,0,0,0,4-9.7c.2-1.6-2.3-2.2-3-.8-1.7,3.1-3.3,6.3-5,9.4.9.1,1.8.2,2.8.4-1.2-6.8,7.6-10.7,7.5-17.6a1.4416,1.4416,0,0,0-2.5-1c-2.1,2.6-4.3,5.1-6.4,7.6.8.6,1.5,1.2,2.3,1.8,7.8-10.6,16-21,23.3-31.9,1.2-1.7-1.3-3.1-2.7-2.1-9.8,7.4-17.3,16.5-21.8,28.2-.5,1.3,1.2,2.4,2.3,1.8a47.8243,47.8243,0,0,0,10.7-8.9c1.3-1.5-.8-3.6-2.2-2.2a40.741,40.741,0,0,1-10.1,8.4c.8.6,1.5,1.2,2.3,1.8,4-10.8,11-20.6,20.8-26.7l-2.3-2.3c-8,10.4-15.3,21.5-22.9,32.2-.9,1.3,1.2,3,2.3,1.8,2.1-2.6,4.3-5.1,6.5-7.6-.8-.3-1.7-.7-2.5-1,0,7.1-8.4,10.6-7.5,18,.2,1.4,2,2.2,2.8.8,1.7-3.1,3.5-6.2,5.2-9.3-1-.3-2-.5-3-.8a17.0628,17.0628,0,0,1-3.1,7.9l2.7.3c-1.3-7.5,1-14.6,5.8-20.4.6-.9-.5-2.1-1.4-1.3Z" transform="translate(-144.1055 -804.3543)"/><path class="cls-15" d="M171.6686,908.52c-.4.1-.7.1-1,.2-1.2.2-.9,2.2.3,2.1,20.1-1.8,51-13.4,49.4-38.5-.2-3.2-4.9-3.2-5,0-.7,22.1-26.6,31.8-44.7,36.4a12.1327,12.1327,0,0,0,1.4,1v-1c-.2-.1-.3-.2-.4-.2Z" transform="translate(-144.1055 -804.3543)"/><path class="cls-15" d="M214.0686,890.12c7.2-1.3,14.4-4.5,21.1-7.3a64.4626,64.4626,0,0,0,15.8-8.8,33.43,33.43,0,0,0,10.6-13.2c2.6-6.2,2.4-13.1,5.9-18.9,1.3-2.2-2.1-4.1-3.4-2-3,4.8-3.5,10.3-5.1,15.6-1.9,6.6-6.5,11.8-11.9,15.8-5.3,3.8-11.2,6.3-17.2,8.7-5.7,2.2-12,4.2-16.7,8.4a.9952.9952,0,0,0,.9,1.7Z" transform="translate(-144.1055 -804.3543)"/><path class="cls-15" d="M257.5686,861.62c-2.8.9-5,4.5-7.1,6.5-2.8,2.7-6.1,5.2-8.5,8.2-.7.9.2,2.3,1.3,1.7,3.4-2,6.2-5.4,8.8-8.3,1.9-2.1,5.3-5,5.7-8,.1,0-.1-.1-.2-.1Z" transform="translate(-144.1055 -804.3543)"/><path class="cls-15" d="M268.2686,843.02c9.7-7.1,19.9-12.6,31.6-15.7,1.5-.4.8-2.5-.6-2.3-12.1,2-23.6,7.6-31.8,16.9-.4.6.2,1.6.8,1.1Z" transform="translate(-144.1055 -804.3543)"/><path class="cls-15" d="M261.0686,826.82c-12.2,11.1-15.3,30.2-30.9,37.6-1.9.9-.5,3.8,1.4,3.3a33.4528,33.4528,0,0,0,20.9-14c5.7-8.4,5.3-23.1,15.9-27.3l-1.5-3.6c-4.7,2.1-7.8,5.9-10.3,10.2-3.5,6.1-6.6,12.5-9.8,18.8a1.9053,1.9053,0,0,0,3.3,1.9c6.6-9.2,11.7-19.7,19.9-27.7,9.5-9.2,21.7-13,33.9-6.5,1.1.6,2.5-1,1.4-1.8a17.5111,17.5111,0,0,0-10-3.9c-1.2-.1-1.2,1.9,0,1.9a12.6136,12.6136,0,0,1,8.4,3.6c.5-.6.9-1.2,1.4-1.8a30.6955,30.6955,0,0,0-33.5,2.2c-11,8.3-16.9,21.2-24.8,32.1,1.1.6,2.2,1.3,3.3,1.9,4.6-9.1,8.7-23.2,18.8-27.5,2-.9.5-4.4-1.5-3.6-8.3,3.4-11.2,11.4-13.8,19.4-3.7,11.4-10.8,19.8-22.9,22.3.3,1.2.7,2.3,1,3.5,17.6-5.8,20.3-26.7,31-39.4.7-1.1-.6-2.5-1.6-1.6Z" transform="translate(-144.1055 -804.3543)"/></g><g id="Ear"><path class="cls-17" d="M202.3686,941.12s-1.8-3.1-10.8-1.7-9.2,9.4-9.2,9.4-.1,4.8,1.8,5.1-.1-5.1-.1-5.1,2.8-6.5,9.5-6.7c6.7-.1,5.5.7,7.1.6A1.9581,1.9581,0,0,0,202.3686,941.12Z" transform="translate(-144.1055 -804.3543)"/><path class="cls-17" d="M204.3686,943.92s-1.6,3.4-4,4.4,2,1.4,2,1.4a13.0962,13.0962,0,0,0,3.8-4.7C206.1686,945.12,206.0686,943.92,204.3686,943.92Z" transform="translate(-144.1055 -804.3543)"/><path class="cls-17" d="M211.9686,949.72s1.4-.1.7,1.8.2,4.6.2,4.6,1.6,1.9,3.1,1.4,3.1,3.5,2.8,4.3c-.3.7.1,2-1,2s-3.4,1.1-4.5,0-4-7.6-3.7-8.2.4-5.8,1-5.8A10.3277,10.3277,0,0,1,211.9686,949.72Z" transform="translate(-144.1055 -804.3543)"/><path class="cls-17" d="M197.7686,949.72s-10.1,9.5.7,12.2,2.3-3.7,2.7-4.3a47.03,47.03,0,0,0,1.7-4.5S203.7686,952.12,197.7686,949.72Z" transform="translate(-144.1055 -804.3543)"/></g><g id="Shadows"><path class="cls-18" d="M239.7686,996.92c-1.6.6,12.3,28.2,6.9,44.8a5.7266,5.7266,0,0,0-.4,2.8c1,7.9,20,12,37.1,14.3,0,0,5.4-8.9,3.9-8.9s-10.4-4.5-10.4-4.5c-7.7.5-13.4-3.1-14.2-7.4a8.3279,8.3279,0,0,1,3.5-7.8c7.1-5.2,19.1,4.3,21,1.7,2.5-3.4-16.3-23.6-27.8-23.9-.9,0-8.9-.1-8.9-.1a37.6024,37.6024,0,0,1-5.7-4.9C241.2686,999.42,240.1686,996.72,239.7686,996.92Z" transform="translate(-144.1055 -804.3543)"/><path class="cls-19" d="M254.9686,1011.02c-.3,1,.6,1.7,1.3,4.1.9,2.8.2,3.7.8,4.9,1.6,3.8,8.4,2.8,16.3,5.5a34.9321,34.9321,0,0,1,11,6,10.7547,10.7547,0,0,1,2.4,4.7c.7,3.8.5,10.6-3.3,22.5-2.2,6.8-1.5,10.8.5,13.1,4.6,5.4,18.8.6,18.8.8,0,.1-.9.3-4.1.9,1.1-2.3,2.5-5.5,4-9.4a132.6158,132.6158,0,0,0,5.3-17.9,59.424,59.424,0,0,0,1.5-12.1c2.3-7.6,3.7-10.7,4.4-10.4a.098.098,0,0,1,.1.1c-.1.2-13.3-2.2-25.7-7-11.6-4.5-18.8-9.8-27.2-8.7C260.2686,1008.22,255.5686,1008.82,254.9686,1011.02Z" transform="translate(-144.1055 -804.3543)"/><path class="cls-18" d="M233.9686,957.12c15.4,33.6,25,41.6,31.2,41.7a42.9416,42.9416,0,0,1,11.6,1.3c5.5,1.4,6.9,2.9,11.4,4.6,13.2,5.1,28,2.7,28,1.9v-.1c-.6-.9,23.4-17,24.9.9,1.5,17.8.4,6.6.4,6.6l-9.1,5.2-10.4,1.3h-12.3l-12.5-3.4-15.1-3.8-20.6-3.6-12.5-4-12.5-13.6-4.6-6.9-4.3-9.3,1.4-17.4Z" transform="translate(-144.1055 -804.3543)"/><path class="cls-1" d="M248.9686,1005.92s-.3,5.4,2.3,5.1,26.2,1.1,34,6.8,3.4,5.7,9.6,7.6c6.8,2.1,9.5,3,11.9,2.6a8.9719,8.9719,0,0,0,2.3-.7c3.5-1.5,6.6-5,5.9-6.8-.5-1.1-2.2-.6-8.8-1.7-.5-.1-3.3-.6-9-1.7-5.9-1.1-5.5-1.1-6-1.1-3-.5-4.1-.7-5.3-1-.8-.2-1.1-.3-1.7-.5a11.841,11.841,0,0,1-3.2-2c-1.3-1-2.8-1.4-5.9-2.2C271.4686,1009.52,261.8686,1007.72,248.9686,1005.92Z" transform="translate(-144.1055 -804.3543)"/><path class="cls-18" d="M228.3686,983.22s-9.1-1.1-9.6.8,4.8,16.8,6.7,20.8,2,31,2,31c-5.7-2.1-11.4-4.3-17.1-6.4a45.7075,45.7075,0,0,0-8.3-51.2c8-.1,16-.3,24-.4l1.4.1,3.7,6.4Z" transform="translate(-144.1055 -804.3543)"/><path class="cls-1" d="M191.8686,970.42a32.0508,32.0508,0,0,0,7.6,4.8c11.7,5.1,23,1.1,26.5-.3.8,1.2,2.1,3.6,1.2,5.1a1.4385,1.4385,0,0,1-.2.3c-1.4,1.1-17.9,3.1-17.5-1.7C209.5686,978.62,204.5686,982.02,191.8686,970.42Z" transform="translate(-144.1055 -804.3543)"/></g><g id="Highlights"><path class="cls-5" d="M341.6686,1001.22a13.06,13.06,0,0,1-1.1-7.4c.4-2.3,1.4-3.6,2.4-5.8,1.4-3,1.8-5.4,2.5-10.1,1.6-10.7.2-19.1.7-28.2.2-3.6.3-5.4.9-7.4a12.2772,12.2772,0,0,0,.8-3.8,10.3932,10.3932,0,0,0-1.6-5.3" transform="translate(-144.1055 -804.3543)"/><path class="cls-5" d="M341.5686,1001.22a12.2107,12.2107,0,0,1-1.1-8.6,25.1665,25.1665,0,0,1,1.7-4.1,18.9929,18.9929,0,0,0,1.4-4c.3-1.4.5-2.8.7-4.2s.4-2.9.5-4.3a61.2842,61.2842,0,0,0,.3-8.6c0-5.7-.9-11.5-.4-17.4.1-1.5.3-2.9.5-4.4a16.7072,16.7072,0,0,1,1.1-4.4,8.2418,8.2418,0,0,0,.6-1.9,12.31,12.31,0,0,0,.2-2,10.2874,10.2874,0,0,0-1-4.1l.3-.2a9.6194,9.6194,0,0,1,2.1,4,6.5225,6.5225,0,0,1,.2,2.4,8.5187,8.5187,0,0,1-.4,2.3,28.6807,28.6807,0,0,0-.5,4.1c-.1,1.4-.1,2.9-.1,4.3-.1,5.6,0,11.4-.2,17.3a65.4091,65.4091,0,0,1-.8,8.8c-.2,1.5-.5,2.9-.7,4.3-.3,1.4-.6,2.9-1,4.3a21.2854,21.2854,0,0,1-1.8,4.1,22.4606,22.4606,0,0,0-1.9,3.8,13.2014,13.2014,0,0,0,.5,8.3Z" transform="translate(-144.1055 -804.3543)"/><path class="cls-5" d="M340.0686,921.12s-2.1,13.3,6.2,12.2A24.7985,24.7985,0,0,0,340.0686,921.12Z" transform="translate(-144.1055 -804.3543)"/><path class="cls-5" d="M333.9686,946.82s-3.4.4-3.4,2,.8,7.7,1.7,8.2,7.8,2.6,8.7,10.5c0,0,1-10.2,0-11.3C340.0686,955.02,335.8686,946.32,333.9686,946.82Z" transform="translate(-144.1055 -804.3543)"/><path class="cls-5" d="M310.7686,853.12s11.3,31.2,19.3,28.3C330.0686,881.42,318.3686,856.52,310.7686,853.12Z" transform="translate(-144.1055 -804.3543)"/><path class="cls-5" d="M341.0686,999.12s-2.1-2.6.9-15.5a13.6447,13.6447,0,0,0-2.5-7.9h0s.3-.8,1.5.5,5,4.2,4,4.8" transform="translate(-144.1055 -804.3543)"/><path class="cls-20" d="M311.3686,1028.22c-.4,6.2-.3,11.3-.2,14.9.4,11.1,1.9,14.6-.6,20a22.2267,22.2267,0,0,1-7.9,8.9c-1,.7-3.3,2.3-4.1,1.7-.9-.7.7-3.9,1.4-5.3a89.8642,89.8642,0,0,0,6.2-19.1s1-4.6,3.3-18.1C310.1686,1030.22,310.7686,1029.22,311.3686,1028.22Z" transform="translate(-144.1055 -804.3543)"/></g><g id="Outline"><path class="cls-1" d="M226.0686,974.82c.3.5.6,1.1.9,1.6l.8,1.5c.5,1,1.1,1.9,1.6,2.9,1.1,1.9,2.3,3.8,3.5,5.7s2.5,3.7,3.8,5.6,2.6,3.7,3.9,5.4a35.1676,35.1676,0,0,0,4.3,5.1,13.8728,13.8728,0,0,0,5.4,3.6,11.43,11.43,0,0,0,3.2.7c1.1.1,2.2.1,3.3.1a49.1122,49.1122,0,0,1,6.7.5,72.9584,72.9584,0,0,1,13.1,2.9c2.1.7,4.2,1.6,6.3,2.5l6.1,2.8a46.1947,46.1947,0,0,0,6.2,2.3,35.8379,35.8379,0,0,0,6.5,1.4,74.0009,74.0009,0,0,0,13.3.5h0a75.8453,75.8453,0,0,0,12.6-.4,41.32,41.32,0,0,0,6.1-1.3,14.4543,14.4543,0,0,0,5.4-2.7,7.2128,7.2128,0,0,0,2.9-4.9,7.5187,7.5187,0,0,0,0-1.5,7.7191,7.7191,0,0,0-.2-1.5c-.1-1.1-.3-2.1-.4-3.2-.2-2.1-.4-4.3-.4-6.4,0-1.1,0-2.2.1-3.3.1-.6.1-1.1.2-1.6.1-.3.1-.6.2-.9a.7581.7581,0,0,1,.2-.4,3.2874,3.2874,0,0,1,.3-.6l-.2.3c1.1-4.4,1.9-8.9,2.6-13.3q1.05-6.75,1.8-13.5c.5-4.5.9-9,1.2-13.6.3-4.5.5-9.1.6-13.6l.1.4c-1.5-3.5-3.1-6.9-4.7-10.4-.8-1.7-1.6-3.4-2.5-5.1-.4-.8-.9-1.6-1.4-2.4a10.5422,10.5422,0,0,0-.7-1.1l-.4-.5c-.1-.1-.3-.5-.5-.7a8.8475,8.8475,0,0,1-1-3,29.3105,29.3105,0,0,1-.5-2.9c-.2-1.9-.3-3.9-.4-5.8-.1-3.8-.1-7.7.1-11.5l.1.5c-3.1-6.4-6.4-12.8-9.8-19.1a197.0605,197.0605,0,0,0-11.2-18.2,58.86,58.86,0,0,0-6.7-8.1,22.0928,22.0928,0,0,0-3.9-3.1,5.7865,5.7865,0,0,0-2.1-.7,2.7712,2.7712,0,0,0-.9.1l-1.4.3c-3.6.8-7.3,1-10.7,1.6a25.16,25.16,0,0,0-4.9,1.3,24.03,24.03,0,0,0-2.3,1.1l-2.4,1.2a108.2025,108.2025,0,0,0-17.6,11.8,142.4822,142.4822,0,0,0-15.2,14.9,197.2919,197.2919,0,0,0-24.2,35.1l.2-1.1,5.5,24.9,2.8,12.4.7,3.1.4,1.5c.1.5.3,1.1.4,1.8a4.1993,4.1993,0,0,1-.3,2.4,2.6612,2.6612,0,0,1-1,1.1,6.95,6.95,0,0,1-1.3.5,8.8937,8.8937,0,0,1-3.8-.4l-.7-.2-.2-.8a54.3309,54.3309,0,0,0-6.8-14.9,30.8913,30.8913,0,0,0-5.4-6,16.7228,16.7228,0,0,0-7-3.6,12.5042,12.5042,0,0,0-1.9-.3l-1-.1h-1a29.1331,29.1331,0,0,0-4,.5,71.9267,71.9267,0,0,0-8,2,27.5893,27.5893,0,0,0-7.3,3.6,9.8793,9.8793,0,0,0-2.6,2.8,5.7361,5.7361,0,0,0-.4.7l-.2.9a16.2,16.2,0,0,0-.3,2,27.4158,27.4158,0,0,0,2.1,16,25.3878,25.3878,0,0,0,11.5,11.4,35.7408,35.7408,0,0,0,16.1,3.9h3.2l1.1-.1,2.1-.2,2.1-.3c1.4-.2,2.7-.6,4.1-.9A22.203,22.203,0,0,0,226.0686,974.82Zm-.1.3c-1.3.5-2.6,1-3.9,1.4a30.5878,30.5878,0,0,1-4.1,1c-.7.1-1.4.3-2.1.4l-2.1.3-1.1.1-1.1.1-2.1.1a36.5446,36.5446,0,0,1-16.6-3.6,26.0641,26.0641,0,0,1-12.3-11.8,29.2824,29.2824,0,0,1-2.5-17l.3-2.1.1-.5v-.3c0-.1,0-.1.1-.3a4.3283,4.3283,0,0,1,.5-1.2,11.2732,11.2732,0,0,1,3.1-3.4,29.112,29.112,0,0,1,7.8-4.1,48.3858,48.3858,0,0,1,8.3-2.2,20.3176,20.3176,0,0,1,4.4-.6h1.1l1.1.1a14.6041,14.6041,0,0,1,2.2.3,20.1277,20.1277,0,0,1,8,4,30.223,30.223,0,0,1,5.9,6.5,43.7127,43.7127,0,0,1,4.3,7.6,71.3624,71.3624,0,0,1,3.1,8.1l-.9-1a5.8563,5.8563,0,0,0,2.5.3c.3-.1.2-.1.3-.1a1.9864,1.9864,0,0,0,0-.8l-1.5-6.1c-1-4.1-1.9-8.3-2.9-12.5l-5.6-24.9-.1-.6.3-.5a193.4973,193.4973,0,0,1,24.7-35.6,139.1092,139.1092,0,0,1,15.6-15.1,106.0827,106.0827,0,0,1,18.2-12l2.4-1.3c.8-.4,1.7-.8,2.6-1.2a26.1178,26.1178,0,0,1,5.5-1.4c3.6-.6,7.2-.7,10.6-1.5l1.3-.3a5.4623,5.4623,0,0,1,1.8-.1,7.6106,7.6106,0,0,1,3,1,20.0093,20.0093,0,0,1,4.5,3.5,62.5183,62.5183,0,0,1,6.9,8.5,193.5786,193.5786,0,0,1,11.2,18.5c3.4,6.3,6.7,12.7,9.8,19.3l.1.2v.3c-.2,3.8-.3,7.6-.2,11.3a50.8832,50.8832,0,0,0,.4,5.6,25.1225,25.1225,0,0,0,.4,2.7,7.5173,7.5173,0,0,0,.8,2.4c0,.1.1.1.1.2s.1.1.2.3l.4.6a14.803,14.803,0,0,1,.8,1.3c.5.8.9,1.7,1.4,2.5.9,1.7,1.7,3.4,2.5,5.2,1.6,3.5,3.2,6.9,4.6,10.5l.1.2v.2c-.1,4.6-.3,9.1-.7,13.7-.3,4.6-.8,9.1-1.3,13.6s-1.2,9.1-1.9,13.6c-.8,4.5-1.6,9-2.7,13.4l-.2.3c.1-.1,0,.1-.1.1,0,.1-.1.2-.1.3-.1.2-.1.5-.2.7a7.7191,7.7191,0,0,0-.2,1.5c-.1,1-.1,2.1-.1,3.1q0,3.15.3,6.3c.1,1.1.2,2.1.3,3.1a8.602,8.602,0,0,1,.1,1.6,9.6521,9.6521,0,0,1,0,1.7,8.9414,8.9414,0,0,1-3.4,5.8,19.0847,19.0847,0,0,1-5.9,2.9,46.9992,46.9992,0,0,1-6.3,1.3,68.4728,68.4728,0,0,1-12.8.3h.1a87.1738,87.1738,0,0,1-13.5-.6,48.5805,48.5805,0,0,1-6.6-1.5,58.7376,58.7376,0,0,1-6.3-2.4l-6.1-2.8c-2-.9-4.1-1.8-6.2-2.5a81.7448,81.7448,0,0,0-13-3,48.873,48.873,0,0,0-6.6-.5c-1.1,0-2.2,0-3.4-.1a12.2554,12.2554,0,0,1-3.3-.8,15.4694,15.4694,0,0,1-5.6-3.8,53.938,53.938,0,0,1-4.3-5.2c-1.3-1.8-2.6-3.6-3.9-5.5-1.3-1.8-2.5-3.7-3.7-5.6s-2.3-3.8-3.4-5.8c-.6-1-1.1-1.9-1.6-2.9l-.8-1.5A3.5283,3.5283,0,0,1,225.9686,975.12Z" transform="translate(-144.1055 -804.3543)"/><path d="M317.3686,1020.42a28.3853,28.3853,0,0,0-5.8,11.8,23.4938,23.4938,0,0,0-.5,6.5l.2,1.6a11.0443,11.0443,0,0,0,.3,1.6,9.3638,9.3638,0,0,0,.4,1.6l.5,1.5,1.1,3.3c.2.5.3,1.1.5,1.7.1.6.3,1.1.4,1.7a21.1045,21.1045,0,0,1,.2,7.1,23.3327,23.3327,0,0,1-2.1,6.8,16.2452,16.2452,0,0,1-4.1,5.6l-.2-.2a33.3525,33.3525,0,0,0,3.4-12.5,34.6015,34.6015,0,0,0-1.5-12.7l-.5-1.7a12.2325,12.2325,0,0,1-.3-1.7,11.019,11.019,0,0,1-.2-1.8l-.1-1.8a23.0476,23.0476,0,0,1,1-6.9,29.0816,29.0816,0,0,1,7-11.7Z" transform="translate(-144.1055 -804.3543)"/></g></g><g id="Glasses"><path d="M359.9686,899.82c-3.6-2.8-27.9-7.7-36.7-2s-14.7,2.6-14.7,2.6-10.5-11.6-49.3-6.5l-80,42c.8-.2,15.7-4.3,17.7-2.9,0,0,61-31.5,62.4-31.5s1.4-4.3,12.5,24.1c0,0,21.5,19.8,38.6-2a111.366,111.366,0,0,0,2-14.7c.9-10.2,11.3,11.1,11.3,11.1s7,13.8,22.6,16c0,0,18.2.2,12.8-29.3C358.9686,906.62,363.4686,902.72,359.9686,899.82Zm-56.3,27.8s-9.6,9.6-27.2-3.1c0,0-6.2-3.4-8.2-21.3,0,0,0-6,4.8-7.7s26.6-.3,26.1,3.4C299.1686,899.02,311.6686,907.52,303.6686,927.62Zm43.8,6c-1,.3-15.7-1.7-20.3-15.3-4.5-13.6,0-18.1,0-18.1,6.8-7.1,23.2,0,23.2,0C366.0686,928.82,348.4686,933.32,347.4686,933.62Z" transform="translate(-144.1055 -804.3543)"/><path class="cls-21" d="M174.8686,937.62l84.2-44.2c37.4-4.9,48.6,5.5,49.7,6.6.7.3,6.3,2.5,14.2-2.6,9-5.8,33.7-.9,37.3,2h0a3.6494,3.6494,0,0,1,1.5,2.9c0,2-1.7,3.9-2.3,4.5,2,11.3.9,19.6-3.4,24.7a13.8258,13.8258,0,0,1-9.9,4.9c-15.8-2.2-23-16.1-23.1-16.2-2.9-5.8-7.7-13.9-9.5-13.5-.4.1-.7.9-.8,2.3-.8,10.1-1.9,14.6-2,14.8l-.1.2c-4.9,6.3-10.7,9.8-17.3,10.4-11.8,1-21.6-7.9-22-8.3l-.1-.1v-.1c-6.2-15.8-9.6-23.4-11-24a.7559.7559,0,0,0-.4.1,1.2683,1.2683,0,0,1-.6.1c-1.8.4-45.5,22.8-62.1,31.4l-.3.1-.2-.2c-1.1-.8-9.5.9-17.2,3Zm138.7-32c3.3,0,9.2,11.7,10.4,14.1.1.1,7.1,13.6,22.3,15.7a12.9153,12.9153,0,0,0,9.1-4.6c4.1-4.9,5.2-13,3.2-24.1l-.1-.3.2-.2s2.2-2,2.2-3.9a2.5949,2.5949,0,0,0-1.2-2.1c-3.4-2.7-27.7-7.4-36.1-2-8.9,5.8-15,2.7-15.2,2.6l-.1-.1c-.1-.1-10.8-11.3-48.8-6.4l-76.1,40c4.9-1.2,11.6-2.6,13.6-1.9,14.6-7.5,61-31.4,62.4-31.4a.3674.3674,0,0,0,.3-.1,1.0793,1.0793,0,0,1,1.1,0c1.2.5,3.1,2.8,11.5,24.4,1,.9,10.4,8.9,21.2,8q9.3-.75,16.5-9.9c.2-.7,1.2-5.3,1.9-14.6.1-.7.2-2.9,1.7-3.2Zm33.7,28.5c-2.4,0-16.1-2.3-20.5-15.7-4.6-13.7-.1-18.5.1-18.7,7-7.2,23.1-.4,23.8-.1l.2.1.1.2c6.2,11.4,8,20.3,5.3,26.7a13.1455,13.1455,0,0,1-8.5,7.5h-.5Zm-11-36.6c-3.3,0-6.5.8-8.7,3,0,0-4.2,4.6.1,17.6,4.4,13.1,18.5,15.2,19.6,15h0a12.1079,12.1079,0,0,0,7.9-6.9c2.5-6,.8-14.6-5.2-25.6A38.36,38.36,0,0,0,336.2686,897.52Zm-42.7,34.1c-4.5,0-10.3-1.5-17.4-6.7-.2-.1-6.4-3.7-8.4-21.6,0-.3.1-6.4,5.2-8.2,4.3-1.5,22.4-.6,26,2.4a1.7116,1.7116,0,0,1,.7,1.3c1.7,1.3,11.9,10.3,4.5,29.1l-.1.2A17.3054,17.3054,0,0,1,293.5686,931.62Zm-13.2-36.2a24.7984,24.7984,0,0,0-7.2.7c-4.4,1.6-4.5,7.1-4.5,7.2,1.9,17.2,7.9,20.8,8,20.8,16.4,11.9,25.6,4.2,26.5,3.3,7.6-19.4-3.9-27.6-4.4-27.9l-.3-.2v-.3c0-.1,0-.3-.4-.7C295.9686,896.42,287.0686,895.42,280.3686,895.42Z" transform="translate(-144.1055 -804.3543)"/></g></g><path d="M424.5,750.6" transform="translate(-144.1055 -804.3543)"/></svg>
